<svg width="205" height="68" viewBox="0 0 205 68" fill="none" xmlns="http://www.w3.org/2000/svg">
<g clip-path="url(#clip0_8_112)">
<path d="M59.9685 51.7053C58.5677 51.2048 58.3023 50.8712 58.3023 50.2971C58.3023 49.7231 58.7053 49.2668 59.6637 49.2668C60.3666 49.2668 60.8335 49.4974 61.3447 49.9193L61.846 49.306C61.2562 48.835 60.6566 48.5602 59.7129 48.5602C58.4055 48.5602 57.5208 49.2275 57.5208 50.3462C57.5208 51.3569 58.0319 51.8476 59.5458 52.3873C60.8286 52.8485 61.2169 53.2165 61.2169 53.8642C61.2169 54.6051 60.6369 55.0663 59.708 55.0663C58.9855 55.0663 58.376 54.7327 57.8452 54.2273L57.3291 54.8063C57.8796 55.3656 58.7299 55.7778 59.6834 55.7778C61.1431 55.7778 62.0033 54.924 62.0033 53.8299C62.0033 52.7357 61.5265 52.2696 59.9734 51.7102L59.9685 51.7053Z" fill="white"/>
<path d="M65.1787 50.3118C64.4955 50.3118 63.8762 50.4787 63.4142 50.7289L63.6993 51.3373C64.1269 51.0871 64.579 50.935 65.1295 50.935C65.8963 50.935 66.2698 51.3128 66.2698 52.0978V52.7161C65.9602 52.5443 65.4834 52.4119 64.9575 52.4119C63.9204 52.4119 62.9473 52.9123 62.9473 54.0899C62.9473 55.3558 63.8074 55.7679 64.6233 55.7679C65.3802 55.7679 65.8963 55.4147 66.2698 55.0172V55.66H67.0169V51.9997C67.0169 50.7829 66.3091 50.302 65.1787 50.302V50.3118ZM66.2698 54.3794C65.9503 54.8161 65.4392 55.1644 64.7609 55.1644C64.117 55.1644 63.6845 54.8259 63.6845 54.0457C63.6845 53.3883 64.1465 53.0154 64.9182 53.0154C65.5571 53.0154 65.9258 53.1331 66.2698 53.3196V54.3843V54.3794Z" fill="white"/>
<path d="M74.5567 52.5934V55.6649H75.3037V52.4707C75.3037 50.9399 74.6353 50.3119 73.5638 50.3119C72.7086 50.3119 72.281 50.7093 71.9714 51.2098C71.7207 50.7093 71.2734 50.3119 70.5313 50.3119C69.912 50.3119 69.4696 50.6112 69.1993 51.0626V50.4247H68.4424V55.6698H69.1993V52.5983C69.1993 51.4355 69.6466 50.9595 70.3691 50.9595C71.0916 50.9595 71.4995 51.3962 71.4995 52.5983V55.6698H72.2515V52.5983C72.2515 51.4355 72.7086 50.9595 73.4213 50.9595C74.1782 50.9595 74.5517 51.3962 74.5517 52.5983L74.5567 52.5934Z" fill="white"/>
<path d="M78.3164 52.613C77.4267 52.2107 77.1613 52.039 77.1613 51.5925C77.1613 51.2098 77.4759 50.9448 78.0313 50.9448C78.5867 50.9448 78.9307 51.092 79.3387 51.4158L79.7565 50.8614C79.3583 50.5326 78.798 50.3069 78.0804 50.3069C77.122 50.3069 76.4388 50.8467 76.4388 51.6415C76.4388 52.4806 76.8763 52.7995 77.933 53.2509C78.8619 53.6483 79.1716 53.8887 79.1716 54.3205C79.1716 54.8308 78.8324 55.1301 78.1099 55.1301C77.5889 55.1301 77.0974 54.9191 76.6797 54.5511L76.2373 55.0957C76.7386 55.4981 77.3678 55.7679 78.0903 55.7679C78.9995 55.7679 79.8892 55.3214 79.8892 54.2862C79.8892 53.349 79.3092 53.0595 78.3114 52.6081L78.3164 52.613Z" fill="white"/>
<path d="M84.2735 53.4864C84.2735 54.6345 83.6984 55.1203 82.9759 55.1203C82.1305 55.1203 81.7324 54.6149 81.7324 53.4864V50.4198H80.9854V53.614C80.9854 55.1203 81.7177 55.7729 82.8236 55.7729C83.4871 55.7729 83.9737 55.4637 84.2735 55.0222V55.6649H85.0255V50.4198H84.2735V53.4864Z" fill="white"/>
<path d="M90.3331 55.6649V52.4707C90.3331 50.9595 89.6008 50.3119 88.49 50.3119C87.8314 50.3119 87.3399 50.621 87.045 51.0626V50.4247H86.2881V55.6698H87.045V52.5983C87.045 51.4502 87.6102 50.9595 88.3376 50.9595C89.1781 50.9595 89.5811 51.4698 89.5811 52.5983V55.6698H90.3331V55.6649Z" fill="white"/>
<path d="M92.6971 57.0191L92.9379 57.5883C94.8892 57.5294 95.597 56.7689 95.597 55.189V50.4149H94.845V51.0037C94.4763 50.5817 94.0242 50.3069 93.3655 50.3069C92.2646 50.3069 91.3799 51.2637 91.3799 53.1233C91.3799 54.9829 92.2154 55.7679 93.2623 55.7679C93.975 55.7679 94.4763 55.4147 94.845 55.0172V55.2871C94.845 56.5088 94.4468 56.9701 92.6922 57.0142L92.6971 57.0191ZM93.454 55.1203C92.6234 55.1203 92.122 54.4334 92.122 53.1135C92.122 51.7053 92.5497 50.9546 93.4245 50.9546C94.0487 50.9546 94.555 51.303 94.845 51.7397V54.3647C94.4763 54.8259 94.0143 55.1203 93.454 55.1203Z" fill="white"/>
<path d="M103.884 52.1175C103.884 49.7182 102.527 48.6682 100.689 48.6682H98.8359V55.6649H100.551C102.424 55.6649 103.884 54.6542 103.884 52.1175ZM99.6174 49.3747H100.63C102.242 49.3747 103.102 50.356 103.102 52.142C103.102 54.1537 102.158 54.9535 100.65 54.9535H99.6174V49.3747Z" fill="white"/>
<path d="M105.885 51.0675V50.4198H105.133V55.6649H105.885V52.5836C105.885 51.5826 106.298 50.9988 107.03 50.9988C107.379 50.9988 107.605 51.0773 107.816 51.1999L108.003 50.4443C107.826 50.3658 107.576 50.3168 107.182 50.3168C106.617 50.3168 106.121 50.6553 105.885 51.0724V51.0675Z" fill="white"/>
<path d="M112.495 55.1644L112.141 54.6247C111.66 54.9436 111.301 55.1252 110.686 55.1252C109.831 55.1252 109.295 54.4137 109.227 53.2999H112.726C112.751 53.1773 112.76 53.0693 112.76 52.8927C112.76 51.3962 112.013 50.3168 110.642 50.3168C109.394 50.3168 108.475 51.352 108.475 53.0154C108.475 55.081 109.644 55.7778 110.608 55.7778C111.399 55.7778 111.861 55.5668 112.495 55.1693V55.1644ZM110.642 50.9595C111.561 50.9595 112.004 51.671 112.063 52.6866H109.227C109.315 51.514 109.861 50.9595 110.642 50.9595Z" fill="white"/>
<path d="M115.267 55.7729C116.019 55.7729 116.535 55.4196 116.904 55.0221V55.6649H117.656V52.0046C117.656 50.7878 116.948 50.3069 115.817 50.3069C115.134 50.3069 114.515 50.4738 114.053 50.724L114.333 51.3324C114.766 51.0822 115.213 50.9301 115.763 50.9301C116.535 50.9301 116.904 51.3079 116.904 52.0929V52.7112C116.594 52.5394 116.122 52.407 115.596 52.407C114.554 52.407 113.576 52.9074 113.576 54.085C113.576 55.3509 114.441 55.763 115.262 55.763L115.267 55.7729ZM115.557 53.0105C116.196 53.0105 116.569 53.1282 116.909 53.3147V54.3794C116.589 54.8161 116.078 55.1644 115.4 55.1644C114.761 55.1644 114.323 54.8259 114.323 54.0457C114.323 53.3883 114.79 53.0154 115.557 53.0154V53.0105Z" fill="white"/>
<path d="M125.195 52.5934V55.6649H125.947V52.4707C125.947 50.9399 125.279 50.3119 124.207 50.3119C123.357 50.3119 122.924 50.7093 122.62 51.2098C122.369 50.7093 121.922 50.3119 121.18 50.3119C120.555 50.3119 120.118 50.6112 119.848 51.0626V50.4247H119.101V55.6698H119.848V52.5983C119.848 51.4355 120.3 50.9595 121.022 50.9595C121.745 50.9595 122.158 51.3962 122.158 52.5983V55.6698H122.905V52.5983C122.905 51.4355 123.362 50.9595 124.079 50.9595C124.836 50.9595 125.21 51.3962 125.21 52.5983L125.195 52.5934Z" fill="white"/>
<path d="M59.9685 62.1121C58.5628 61.6116 58.3072 61.2829 58.3072 60.7039C58.3072 60.125 58.7102 59.6785 59.6686 59.6785C60.3715 59.6785 60.8433 59.9042 61.3496 60.3261L61.8509 59.7177C61.2611 59.2516 60.6566 58.9719 59.7178 58.9719C58.4055 58.9719 57.5257 59.6294 57.5257 60.7579C57.5257 61.7687 58.0369 62.2544 59.5507 62.7941C60.8335 63.2603 61.2218 63.6233 61.2218 64.2759C61.2218 65.0119 60.6418 65.4731 59.708 65.4731C58.9855 65.4731 58.376 65.1395 57.8452 64.6341L57.3291 65.2131C57.8796 65.7724 58.7299 66.1797 59.6834 66.1797C61.1431 66.1797 61.9984 65.3308 61.9984 64.2318C61.9984 63.1327 61.5216 62.6715 59.9734 62.1121H59.9685Z" fill="white"/>
<path d="M65.1884 61.3663C65.7192 61.3663 66.0681 61.5528 66.4466 61.8962L66.8988 61.3369C66.4859 60.9738 65.9403 60.7138 65.2375 60.7138C64.1365 60.7138 62.9717 61.5332 62.9717 63.4712C62.9717 65.3014 64.0284 66.1748 65.1834 66.1748C65.9207 66.1748 66.4318 65.8951 66.8742 65.4437L66.422 64.9677C66.0632 65.3161 65.7241 65.5222 65.2129 65.5222C64.284 65.5222 63.7286 64.693 63.7286 63.4026C63.7286 62.1121 64.3626 61.3565 65.1834 61.3565L65.1884 61.3663Z" fill="white"/>
<path d="M70.1082 60.7187C69.4496 60.7187 68.9531 61.0278 68.6533 61.4694V59.0063H67.9062V66.0815H68.6533V63.01C68.6533 61.8619 69.2284 61.3712 69.9558 61.3712C70.8012 61.3712 71.1993 61.8766 71.1993 63.01V66.0815H71.9513V62.8775C71.9513 61.3712 71.219 60.7187 70.1082 60.7187Z" fill="white"/>
<path d="M75.3031 60.7187C74.0252 60.7187 73.0078 61.6754 73.0078 63.4565C73.0078 65.2376 73.9859 66.1846 75.2638 66.1846C76.5417 66.1846 77.5689 65.1983 77.5689 63.4173C77.5689 61.6362 76.581 60.7187 75.3031 60.7187ZM75.2884 65.532C74.3742 65.532 73.7598 64.8156 73.7598 63.4369C73.7598 62.0581 74.3742 61.3712 75.2884 61.3712C76.2026 61.3712 76.8169 62.0581 76.8169 63.4369C76.8169 64.8156 76.1977 65.532 75.2884 65.532Z" fill="white"/>
<path d="M79.4512 59.0014H78.6992V66.0766H79.4512V59.0014Z" fill="white"/>
<path d="M82.8867 60.7187C82.2035 60.7187 81.5842 60.8904 81.1271 61.1406L81.4072 61.7539C81.8398 61.5037 82.2919 61.3516 82.8424 61.3516C83.6092 61.3516 83.9827 61.7343 83.9827 62.5096V63.1327C83.6731 62.961 83.2012 62.8285 82.6753 62.8285C81.6333 62.8285 80.6602 63.3289 80.6602 64.5114C80.6602 65.7773 81.5203 66.1846 82.3411 66.1846C83.0931 66.1846 83.6092 65.8362 83.9827 65.4388V66.0815H84.7347V62.4261C84.7347 61.1995 84.022 60.7236 82.8916 60.7236L82.8867 60.7187ZM83.9778 64.7862C83.6632 65.218 83.1422 65.5712 82.4689 65.5712C81.8299 65.5712 81.3974 65.2327 81.3974 64.4526C81.3974 63.7902 81.8594 63.4271 82.6311 63.4271C83.27 63.4271 83.6386 63.535 83.9778 63.7264V64.7862Z" fill="white"/>
<path d="M86.9122 61.4792V60.8217H86.1602V66.0717H86.9122V62.9904C86.9122 61.9944 87.3152 61.4007 88.0524 61.4007C88.4063 61.4007 88.6324 61.4792 88.8437 61.6018L89.0354 60.8413C88.8536 60.7628 88.6078 60.7088 88.2146 60.7088C87.6543 60.7088 87.1481 61.0474 86.9171 61.4743L86.9122 61.4792Z" fill="white"/>
<path d="M91.916 63.0247C91.0264 62.6224 90.756 62.4409 90.756 62.0042C90.756 61.6264 91.0755 61.3565 91.626 61.3565C92.1765 61.3565 92.5304 61.5086 92.9383 61.8275L93.3561 61.278C92.9531 60.9493 92.3977 60.7187 91.6752 60.7187C90.7216 60.7187 90.0286 61.2584 90.0286 62.0582C90.0286 62.8579 90.471 63.2161 91.5228 63.6626C92.4517 64.06 92.7614 64.3053 92.7614 64.7322C92.7614 65.2474 92.4222 65.5418 91.7046 65.5418C91.1787 65.5418 90.6922 65.3308 90.2695 64.9628L89.832 65.5124C90.3334 65.9147 90.9625 66.1797 91.685 66.1797C92.5943 66.1797 93.4839 65.7283 93.4839 64.7028C93.4839 63.7607 92.9039 63.4761 91.9111 63.0247H91.916Z" fill="white"/>
<path d="M96.9148 60.7187C96.2464 60.7187 95.7598 61.0278 95.46 61.4694V59.0063H94.708V66.0815H95.46V63.01C95.46 61.8619 96.0301 61.3712 96.7625 61.3712C97.6029 61.3712 98.0011 61.8766 98.0011 63.01V66.0815H98.7531V62.8775C98.7531 61.3712 98.0256 60.7187 96.9148 60.7187Z" fill="white"/>
<path d="M100.984 60.8217H100.237V66.0717H100.984V60.8217Z" fill="white"/>
<path d="M100.626 58.8198C100.321 58.8198 100.08 59.0602 100.08 59.3645C100.08 59.6687 100.321 59.8944 100.626 59.8944C100.906 59.8944 101.147 59.649 101.147 59.3645C101.147 59.0602 100.906 58.8198 100.626 58.8198Z" fill="white"/>
<path d="M104.833 60.7187C104.125 60.7187 103.624 61.0719 103.25 61.4694V60.8266H102.498V68.0049H103.25V65.4878C103.619 65.9049 104.071 66.1846 104.734 66.1846C105.83 66.1846 106.715 65.2229 106.715 63.3682C106.715 61.5135 105.88 60.7187 104.833 60.7187ZM104.67 65.532C104.051 65.532 103.54 65.1836 103.25 64.742V62.1219C103.619 61.6656 104.081 61.3663 104.641 61.3663C105.477 61.3663 105.978 62.0532 105.978 63.3731C105.978 64.7813 105.545 65.5271 104.675 65.5271L104.67 65.532Z" fill="white"/>
<path d="M110.692 59.7864H114.024V59.0799H109.91V66.0766H110.692V62.8138H112.613V62.1072H110.692V59.7864Z" fill="white"/>
<path d="M116.304 60.7187C115.026 60.7187 114.004 61.6754 114.004 63.4565C114.004 65.2376 114.987 66.1846 116.265 66.1846C117.543 66.1846 118.57 65.1983 118.57 63.4173C118.57 61.6362 117.592 60.7187 116.304 60.7187ZM116.284 65.532C115.37 65.532 114.766 64.8156 114.766 63.4369C114.766 62.0581 115.375 61.3712 116.284 61.3712C117.194 61.3712 117.818 62.0581 117.818 63.4369C117.818 64.8156 117.199 65.532 116.284 65.532Z" fill="white"/>
<path d="M122.714 63.8932C122.714 65.0413 122.149 65.532 121.416 65.532C120.576 65.532 120.173 65.0266 120.173 63.8932V60.8217H119.426V64.0208C119.426 65.5271 120.158 66.1797 121.269 66.1797C121.923 66.1797 122.414 65.8755 122.714 65.4339V66.0766H123.471V60.8266H122.714V63.8981V63.8932Z" fill="white"/>
<path d="M126.93 60.7187C126.272 60.7187 125.78 61.0278 125.481 61.4694V60.8266H124.729V66.0766H125.481V63.0051C125.481 61.857 126.051 61.3663 126.783 61.3663C127.623 61.3663 128.022 61.8717 128.022 63.0051V66.0766H128.774V62.8726C128.774 61.3663 128.041 60.7138 126.93 60.7138V60.7187Z" fill="white"/>
<path d="M133.29 61.4203C132.917 60.9983 132.469 60.7138 131.806 60.7138C130.705 60.7138 129.825 61.6705 129.825 63.535C129.825 65.3995 130.656 66.1797 131.708 66.1797C132.42 66.1797 132.917 65.8313 133.285 65.4339V66.0766H134.037V59.0014H133.285V61.4203H133.29ZM133.29 64.7715C132.917 65.2278 132.46 65.5271 131.899 65.5271C131.069 65.5271 130.567 64.8402 130.567 63.5203C130.567 62.1072 130.995 61.3614 131.87 61.3614C132.489 61.3614 132.995 61.7098 133.29 62.1514V64.7666V64.7715Z" fill="white"/>
<path d="M137.223 60.7187C136.544 60.7187 135.925 60.8904 135.463 61.1406L135.738 61.7539C136.171 61.5037 136.623 61.3516 137.173 61.3516C137.94 61.3516 138.309 61.7343 138.309 62.5096V63.1327C137.999 62.961 137.527 62.8285 136.997 62.8285C135.959 62.8285 134.986 63.3289 134.986 64.5114C134.986 65.7773 135.851 66.1846 136.672 66.1846C137.424 66.1846 137.94 65.8362 138.309 65.4388V66.0815H139.061V62.4261C139.061 61.1995 138.353 60.7236 137.218 60.7236L137.223 60.7187ZM138.309 64.7862C137.989 65.218 137.483 65.5712 136.795 65.5712C136.161 65.5712 135.733 65.2327 135.733 64.4526C135.733 63.7902 136.19 63.4271 136.962 63.4271C137.601 63.4271 137.975 63.535 138.309 63.7264V64.7862Z" fill="white"/>
<path d="M141.459 59.0014H140.702V60.8217H140.054V61.4547H140.702V64.9923C140.702 65.8607 141.056 66.1748 141.71 66.1748C142.103 66.1748 142.383 66.1159 142.673 65.9981L142.727 65.3505C142.487 65.4486 142.29 65.4977 141.985 65.4977C141.587 65.4977 141.459 65.3357 141.459 64.8696V61.4547H142.762V60.8217H141.459V59.0014Z" fill="white"/>
<path d="M144.468 58.8198C144.158 58.8198 143.912 59.0602 143.912 59.3645C143.912 59.6687 144.158 59.8944 144.468 59.8944C144.748 59.8944 144.984 59.649 144.984 59.3645C144.984 59.0602 144.743 58.8198 144.468 58.8198Z" fill="white"/>
<path d="M144.826 60.8217H144.074V66.0717H144.826V60.8217Z" fill="white"/>
<path d="M148.256 60.7187C146.978 60.7187 145.956 61.6754 145.956 63.4565C145.956 65.2376 146.934 66.1846 148.217 66.1846C149.5 66.1846 150.517 65.1983 150.517 63.4173C150.517 61.6362 149.534 60.7187 148.256 60.7187ZM148.237 65.532C147.327 65.532 146.713 64.8156 146.713 63.4369C146.713 62.0581 147.327 61.3712 148.237 61.3712C149.146 61.3712 149.77 62.0581 149.77 63.4369C149.77 64.8156 149.151 65.532 148.237 65.532Z" fill="white"/>
<path d="M153.805 60.7187C153.147 60.7187 152.655 61.0278 152.351 61.4694V60.8266H151.599V66.0766H152.351V63.0051C152.351 61.857 152.921 61.3663 153.653 61.3663C154.494 61.3663 154.897 61.8717 154.897 63.0051V66.0766H155.644V62.8726C155.644 61.3663 154.911 60.7138 153.805 60.7138V60.7187Z" fill="white"/>
<path d="M86.2441 34.8954C83.2262 34.9004 80.7393 37.2555 80.7393 40.2092C80.7393 43.163 83.2262 45.4936 86.2441 45.5034C89.2914 45.4936 91.7538 43.1336 91.7538 40.2092C91.7538 37.2849 89.2914 34.9004 86.2441 34.8954ZM86.1703 43.0796C84.5926 43.0796 83.4032 41.7941 83.4032 40.2092C83.4032 38.6244 84.6762 37.3144 86.249 37.3144C87.8218 37.3144 89.0505 38.5999 89.0505 40.2092C89.0505 41.8186 87.7628 43.0796 86.1753 43.0796H86.1703Z" fill="white"/>
<path d="M60.9859 31.2401C61.8263 32.0693 62.7897 32.7954 63.7383 33.2616L63.8366 33.3155L65.4635 31.3971L65.3062 31.3087C63.7629 30.4746 62.5538 29.4197 61.7625 28.09C60.9761 26.78 60.573 25.259 60.573 23.4386V21.7311H57.6633V23.2571C57.6633 25.2295 57.2161 26.78 56.3756 28.1391C55.4368 29.6454 54.0459 30.8573 52.2667 31.9809L52.1094 32.0791L53.8739 33.9043L53.9722 33.8503C55.024 33.2812 56.1397 32.4029 57.1079 31.4216C57.9484 30.5629 58.6758 29.6454 59.1182 28.777C59.5458 29.6307 60.1995 30.4992 60.9859 31.245V31.2401Z" fill="white"/>
<path d="M57.835 44.2473H70.0143V35.9405H57.835V44.2473ZM60.5726 38.2859H67.2767V41.902H60.5726V38.2859Z" fill="white"/>
<path d="M98.4434 44.2473H112.215V35.9405H98.4434V44.2473ZM101.152 38.2859H109.512V41.902H101.152V38.2859Z" fill="white"/>
<path d="M70.0636 21.2405H67.3555V34.9887H70.0636V28.9045H73.2338V26.4611H70.0636V21.2405Z" fill="white"/>
<path d="M126.213 31.9417C127.103 32.712 128.12 33.3597 129.079 33.7767L129.177 33.8209L130.642 31.8436L130.484 31.7651C129.089 31.0536 127.845 30.1704 126.95 29.091C126.041 27.9919 125.501 26.6671 125.501 25.0725V24.6064H129.531V22.2414H118.59V24.6064H122.615V25.1755C122.615 26.6279 122.134 27.9821 121.333 29.1548C120.394 30.5629 119.023 31.6964 117.691 32.4323L117.514 32.5256L119.313 34.3852L119.411 34.3361C120.379 33.7866 121.451 32.9573 122.365 32.0251C123.097 31.2597 123.756 30.4501 124.159 29.6405C124.645 30.4256 125.392 31.2106 126.218 31.9417H126.213Z" fill="white"/>
<path d="M145.799 38.3398H155.644V44.2424H158.376V35.9945H145.799V38.3398Z" fill="white"/>
<path d="M152.592 28.8849C152.592 27.5847 152.007 26.3875 151.142 25.4748H153.845V23.1344H148.685V20.5585H145.75V23.1344H140.467V25.4748H143.229C142.384 26.3875 141.799 27.5748 141.799 28.8849C141.799 31.7847 144.192 34.1398 147.186 34.1496C150.179 34.1398 152.587 31.7847 152.592 28.8849ZM144.409 28.777C144.409 27.1725 145.765 25.8134 147.186 25.8134C148.606 25.8134 149.958 27.1774 149.963 28.777C149.963 30.3569 148.606 31.7209 147.186 31.7258C145.76 31.7209 144.414 30.3569 144.409 28.777Z" fill="white"/>
<path d="M158.377 21.2405H155.674V35.0377H158.377V29.773H161.557V27.3295H158.377V21.2405Z" fill="white"/>
<path d="M135.439 21.2405H132.735V35.0377H135.439V28.9045H138.614V26.4611H135.439V21.2405Z" fill="white"/>
<path d="M89.5523 25.3325H85.2959V27.7515H89.5523V35.4744H92.2605V21.2405H89.5523V25.3325Z" fill="white"/>
<path d="M82.6761 31.5982C83.5215 32.4225 84.5094 33.1487 85.4531 33.6394L85.5563 33.6982L87.1832 31.7798L87.0259 31.6915C85.4826 30.8819 84.2981 29.8319 83.5018 28.5218C82.6958 27.2216 82.2927 25.6417 82.2927 23.8213V21.7311H79.3781V23.6447C79.3781 25.6171 78.9358 27.1627 78.115 28.4973C77.1811 30.0281 75.7607 31.2499 73.9815 32.3637L73.8291 32.4618L75.6034 34.2919L75.6919 34.2331C76.7388 33.659 77.8299 32.8298 78.7982 31.8828C79.673 31.0144 80.4005 30.0674 80.8428 29.1597C81.2606 29.9889 81.8995 30.8328 82.6761 31.6031V31.5982Z" fill="white"/>
<path d="M129.634 34.8954C126.616 34.9004 124.129 37.2555 124.124 40.2092C124.129 43.1336 126.611 45.4936 129.634 45.5034C132.676 45.4936 135.143 43.1336 135.143 40.2092C135.143 37.2849 132.676 34.9004 129.634 34.8954ZM129.555 43.0796C127.982 43.0796 126.783 41.7941 126.783 40.2092C126.783 38.6244 128.051 37.3144 129.634 37.3144C131.216 37.3144 132.43 38.5999 132.435 40.2092C132.435 41.7892 131.143 43.0796 129.555 43.0796Z" fill="white"/>
<path d="M101.741 29.1253H104.449V22.104H97.1406V24.4396H101.741V29.1253Z" fill="white"/>
<path d="M109.871 29.1253H112.584V22.104H105.275V24.4396H109.871V29.1253Z" fill="white"/>
<path d="M178.902 27.4571H176.626V21.6232H174.065V43.6536H176.626V30.1066H178.902V44.2424H181.556V21.2405H178.902V27.4571Z" fill="white"/>
<path d="M170.31 30.5041C169.701 29.1744 169.45 27.6877 169.45 25.8624V24.994H172.522V22.5162H163.596V24.994H166.766V25.9115C166.766 27.6386 166.54 29.0517 165.995 30.3618C165.361 31.8681 164.294 33.2223 162.594 34.6746L162.476 34.7826L164.157 36.4459L164.26 36.3674C165.105 35.7443 165.99 34.8415 166.727 33.9092C167.351 33.1242 167.877 32.3097 168.206 31.5933C168.546 32.29 169.076 33.0898 169.696 33.8356C170.413 34.709 171.224 35.5382 172.001 36.0337L172.104 36.1024L173.52 34.4146L173.407 34.3115C171.883 32.9868 170.939 31.8043 170.32 30.4991L170.31 30.5041Z" fill="white"/>
<path d="M94.875 32.3931H103.865V35.0132H106.799V32.3931H115.931V30.0428H94.875V32.3931Z" fill="white"/>
<path d="M196.974 31.6424H187.823V24.6898H194.792V22.2414H185.08V34.0172H196.974V31.6424Z" fill="white"/>
<path d="M191.799 36.912H189.062V44.2424H201.865V41.8284H191.799V36.912Z" fill="white"/>
<path d="M201.801 27.6092V21.2356H199.098V38.2074H201.801V30.0527H205.001V27.6092H201.801Z" fill="white"/>
<path d="M57.4122 14.1407L50.3984 11.2409L57.4122 8.34115L56.1637 5.34324L49.155 8.24302L52.0597 1.24136L49.0517 0L46.1519 7.00166L43.2471 0L40.2391 1.24136L43.1439 8.24302L36.1351 5.34324L34.8916 8.34115L41.9004 11.2409L34.8916 14.1407L36.1351 17.1386L43.1439 14.2388L40.2391 21.2405L43.2471 22.4819L46.1519 15.4851L49.0517 22.4819L52.0597 21.2356L49.155 14.2388L56.1637 17.1386L57.4122 14.1407Z" fill="#009FE3"/>
<path d="M12.0319 33.6737H16.6963V21.2405H0.74707V25.4307H12.0319V33.6737Z" fill="#009FE3"/>
<path d="M30.2272 33.6737H34.8916V21.2405H18.9424V25.4307H30.2272V33.6737Z" fill="#009FE3"/>
<path d="M0 40.1062H30.2273V46.5092H34.8916V35.916H0V40.1062Z" fill="#009FE3"/>
<path d="M11.2852 66.0766H34.8919V48.6632H11.2852V66.0766ZM15.9495 52.8534H30.2325V61.8864H15.9495V52.8534Z" fill="#009FE3"/>
</g>
<defs>
<clipPath id="clip0_8_112">
<rect width="205" height="68" fill="white"/>
</clipPath>
</defs>
</svg>
