<svg xmlns="http://www.w3.org/2000/svg" xmlns:xlink="http://www.w3.org/1999/xlink" width="64.642" height="58.445" viewBox="0 0 64.642 58.445">
  <defs>
    <clipPath id="clip-path">
      <rect id="사각형_79" data-name="사각형 79" width="64.642" height="58.445" fill="none"/>
    </clipPath>
  </defs>
  <g id="campaign1" clip-path="url(#clip-path)">
    <path id="패스_798" data-name="패스 798" d="M10.775,2.835A5.933,5.933,0,0,0,8.682,7.2v.327A3.6,3.6,0,0,0,6.15,6.433a4.132,4.132,0,0,0-2.2.763A4.357,4.357,0,0,1,2.625,4.143a4.187,4.187,0,0,1,8.15-1.308" transform="translate(0.237 0)" fill="#f2d057"/>
    <path id="패스_799" data-name="패스 799" d="M42.224,50.8V48.944h.11a3.462,3.462,0,0,1,6.718-.545,3.007,3.007,0,0,1,1.872-.654,2.835,2.835,0,1,1,0,5.67h-8.81V50.8Z" transform="translate(3.807 4.158)" fill="#97bc31"/>
    <path id="패스_800" data-name="패스 800" d="M43.009,43.509a9.64,9.64,0,0,1-7.379-3.38,7.535,7.535,0,0,0,1.213-4.034V23.119a7.593,7.593,0,0,0-3.414-6.324V15.6a9.521,9.521,0,0,1,2.863-6.76A9.675,9.675,0,0,1,52.81,15.6V34.023a9.517,9.517,0,0,1-2.863,6.76,10.6,10.6,0,0,1-6.937,2.726" transform="translate(3.022 0.542)" fill="#7b961a"/>
    <path id="패스_801" data-name="패스 801" d="M30.221,42.714a7.577,7.577,0,0,1-7.6-7.524V22.324A7.667,7.667,0,0,1,34.406,16a7.314,7.314,0,0,1,3.414,6.324V35.3a7,7,0,0,1-1.213,4.034,7.562,7.562,0,0,1-6.386,3.38" transform="translate(2.045 1.338)" fill="#97bc31"/>
    <path id="패스_802" data-name="패스 802" d="M25.409,47.745a2.835,2.835,0,1,1,0,5.67H16.048a2.29,2.29,0,1,1,0-4.58,1.411,1.411,0,0,1,.661.109,3.461,3.461,0,0,1,6.717-.545,3.889,3.889,0,0,1,1.983-.654" transform="translate(1.241 4.158)" fill="#97bc31"/>
    <path id="패스_803" data-name="패스 803" d="M21.786,6.016a3.271,3.271,0,1,1,0,6.542H5.929a3.3,3.3,0,0,1-3.3-3.271A3.091,3.091,0,0,1,3.836,6.779a3.52,3.52,0,0,1,4.736.327V6.779a5.41,5.41,0,0,1,2.092-4.362A5.754,5.754,0,0,1,14.519,1a5.867,5.867,0,0,1,5.837,5.452c.219-.327.88-.436,1.431-.436" transform="translate(0.237 0.09)" fill="#66cded"/>
    <path id="패스_804" data-name="패스 804" d="M10.8,24.7A9.6,9.6,0,1,1,1.11,34.3,9.644,9.644,0,0,1,10.8,24.7" transform="translate(0.1 2.233)" fill="#97bc31"/>
    <path id="패스_805" data-name="패스 805" d="M10.053,55.019a.707.707,0,0,1-.661-.654V37.354a.661.661,0,0,1,1.322,0v17.01c.11.436-.22.654-.661.654" transform="translate(0.849 3.317)" fill="#845c21"/>
    <path id="패스_806" data-name="패스 806" d="M32.466,31.062a.685.685,0,0,0-.111-.981.7.7,0,0,0-.99.109l-.881,1.09V28.554a.661.661,0,0,0-1.322,0v1.418l-.881-1.09a.7.7,0,0,0-.991-.109.685.685,0,0,0-.11.981l1.982,2.508v1.854l-.881-1.09a.7.7,0,0,0-.991-.109.685.685,0,0,0-.11.981l1.982,2.508V55.269a.661.661,0,0,0,1.322,0V37.823l1.982-2.508a.685.685,0,0,0-.111-.981.7.7,0,0,0-.99.109l-.881,1.09V33.57Z" transform="translate(2.443 2.522)" fill="#845c21"/>
    <path id="패스_807" data-name="패스 807" d="M45.97,29.667a.7.7,0,0,0-.99.109l-1.872,2.508V28.468l2.973-3.925a.685.685,0,0,0-.111-.981.7.7,0,0,0-.99.109l-1.872,2.508V18.654a.661.661,0,0,0-1.322,0v4.8l-.882-1.09a.7.7,0,0,0-.991-.109.686.686,0,0,0-.109.981l1.982,2.508v3.816l-.882-1.09a.7.7,0,0,0-.991-.109.686.686,0,0,0-.109.981l1.982,2.508V35.01L40.9,33.92a.7.7,0,0,0-.991-.109.686.686,0,0,0-.109.981L41.786,37.3V56.164a.661.661,0,0,0,1.322,0v-21.7l2.973-3.925a.573.573,0,0,0-.111-.872" transform="translate(3.584 1.627)" fill="#845c21"/>
    <path id="패스_808" data-name="패스 808" d="M63.981,52.3H.661a.654.654,0,1,0,0,1.308h63.32a.654.654,0,1,0,0-1.308" transform="translate(0 4.727)" fill="#fadebc"/>
  </g>
</svg>
