<svg xmlns="http://www.w3.org/2000/svg" xmlns:xlink="http://www.w3.org/1999/xlink" width="56.167" height="60" viewBox="0 0 56.167 60">
  <defs>
    <clipPath id="clip-path">
      <rect id="사각형_141" data-name="사각형 141" width="56.167" height="60" transform="translate(0 0)" fill="none"/>
    </clipPath>
  </defs>
  <g id="campaign5" transform="translate(0 -0.001)">
    <g id="그룹_46" data-name="그룹 46" transform="translate(0 0.001)" clip-path="url(#clip-path)">
      <path id="패스_815" data-name="패스 815" d="M109.259,1775.163h0a3.151,3.151,0,0,1-3.3-2.982v-.609h6.593v.609a3.151,3.151,0,0,1-3.3,2.982" transform="translate(-102.231 -1715.163)" fill="#933245"/>
      <path id="패스_816" data-name="패스 816" d="M1305.409,1775.163h0a3.151,3.151,0,0,1-3.3-2.982v-.609h6.593v.609a3.151,3.151,0,0,1-3.3,2.982" transform="translate(-1256.269 -1715.163)" fill="#933245"/>
      <line id="선_7" data-name="선 7" transform="translate(0.079 50.163)" fill="#dd3646"/>
      <line id="선_8" data-name="선 8" transform="translate(56.088 50.163)" fill="#dd3646"/>
      <path id="패스_817" data-name="패스 817" d="M560.391,500.355v-6.739a3.221,3.221,0,0,0-3.37-3.048H545.788a3.221,3.221,0,0,0-3.37,3.048v6.739Z" transform="translate(-523.321 -474.948)" fill="#b72e42"/>
      <path id="패스_818" data-name="패스 818" d="M64.6,11.085V16.1a3.207,3.207,0,0,1-4.057,2.861L50.79,16.908a3.018,3.018,0,0,1-2.466-2.853V10.39A1.482,1.482,0,0,0,47.2,9,35.321,35.321,0,0,0,36.836,7.793,35.4,35.4,0,0,0,26.461,9a1.467,1.467,0,0,0-1.113,1.389l-.008,3.664a3.018,3.018,0,0,1-2.466,2.853l-9.745,2.053A3.207,3.207,0,0,1,9.072,16.1V11.085a3.518,3.518,0,0,1,1.3-2.7C13.484,5.832,22.183,0,36.836,0S60.188,5.832,63.3,8.388a3.481,3.481,0,0,1,1.3,2.7" transform="translate(-8.753 0)" fill="#dd3646"/>
      <path id="패스_819" data-name="패스 819" d="M56.167,1538.3v4a2.147,2.147,0,0,1-2.247,2.032H2.247A2.147,2.147,0,0,1,0,1542.3v-4a7.377,7.377,0,0,1,.079-1.075l1.6-1.256H54.421l1.666,1.256a7.372,7.372,0,0,1,.079,1.075" transform="translate(0 -1487.059)" fill="#b72e42"/>
      <path id="패스_820" data-name="패스 820" d="M58.254,772.238H2.245a7.432,7.432,0,0,1,.23-1.038l7.107-23.873a2.222,2.222,0,0,1,2.169-1.5h37a2.222,2.222,0,0,1,2.169,1.5L58.024,771.2a7.427,7.427,0,0,1,.23,1.038" transform="translate(-2.166 -722.075)" fill="#dd3646"/>
      <path id="패스_821" data-name="패스 821" d="M414.865,1127.488c0,4.77-6.491,8.636-14.5,8.636s-14.5-3.866-14.5-8.636v-1.956h29Z" transform="translate(-372.284 -1089.693)" fill="#b72e42"/>
      <path id="패스_822" data-name="패스 822" d="M414.865,862.958c0,4.769-6.491,8.636-14.5,8.636s-14.5-3.866-14.5-8.636,6.491-8.636,14.5-8.636,14.5,3.866,14.5,8.636" transform="translate(-372.284 -827.119)" fill="#f4f4f4"/>
      <path id="패스_823" data-name="패스 823" d="M743.671,888.766c0,.673-.916,1.218-2.045,1.218s-2.045-.545-2.045-1.218.916-1.218,2.045-1.218,2.045.545,2.045,1.218" transform="translate(-713.542 -859.287)" fill="#b72e42"/>
      <path id="패스_824" data-name="패스 824" d="M540.989,949.777c0,.673-.916,1.218-2.045,1.218s-2.045-.545-2.045-1.218.916-1.218,2.045-1.218,2.045.545,2.045,1.218" transform="translate(-517.996 -918.356)" fill="#b72e42"/>
      <path id="패스_825" data-name="패스 825" d="M424.8,1087.037c0,.673-.916,1.218-2.045,1.218s-2.045-.546-2.045-1.218.916-1.218,2.045-1.218,2.045.546,2.045,1.218" transform="translate(-405.896 -1051.245)" fill="#b72e42"/>
      <path id="패스_826" data-name="패스 826" d="M946.22,949.777c0,.673.916,1.218,2.045,1.218s2.045-.545,2.045-1.218-.916-1.218-2.045-1.218-2.045.545-2.045,1.218" transform="translate(-912.907 -918.356)" fill="#b72e42"/>
      <path id="패스_827" data-name="패스 827" d="M743.671,1285.309c0-.673-.916-1.218-2.045-1.218s-2.045.545-2.045,1.218.916,1.218,2.045,1.218,2.045-.546,2.045-1.218" transform="translate(-713.542 -1243.204)" fill="#b72e42"/>
      <path id="패스_828" data-name="패스 828" d="M540.989,1224.3c0-.673-.916-1.218-2.045-1.218s-2.045.546-2.045,1.218.916,1.218,2.045,1.218,2.045-.546,2.045-1.218" transform="translate(-517.996 -1184.135)" fill="#b72e42"/>
      <path id="패스_829" data-name="패스 829" d="M946.22,1224.3c0-.673.916-1.218,2.045-1.218s2.045.546,2.045,1.218-.916,1.218-2.045,1.218-2.045-.546-2.045-1.218" transform="translate(-912.907 -1184.135)" fill="#b72e42"/>
      <path id="패스_830" data-name="패스 830" d="M1062.41,1087.037c0,.673.916,1.218,2.045,1.218s2.045-.546,2.045-1.218-.916-1.218-2.045-1.218-2.045.546-2.045,1.218" transform="translate(-1025.006 -1051.245)" fill="#b72e42"/>
      <path id="패스_831" data-name="패스 831" d="M674.358,1031.177c0,1.428,1.944,2.586,4.342,2.586s4.342-1.158,4.342-2.586-1.944-2.586-4.342-2.586-4.342,1.158-4.342,2.586" transform="translate(-650.616 -995.839)" fill="#b72e42"/>
    </g>
  </g>
</svg>
