<svg id="campaign4" xmlns="http://www.w3.org/2000/svg" xmlns:xlink="http://www.w3.org/1999/xlink" width="64" height="63.677" viewBox="0 0 64 63.677">
  <defs>
    <clipPath id="clip-path">
      <rect id="사각형_140" data-name="사각형 140" width="64" height="63.677" fill="none"/>
    </clipPath>
  </defs>
  <g id="그룹_44" data-name="그룹 44" clip-path="url(#clip-path)">
    <path id="패스_809" data-name="패스 809" d="M31.94,12.566H24.586A1.484,1.484,0,0,1,23.1,11.081v-9.6A1.484,1.484,0,0,1,24.586,0H31.94a1.484,1.484,0,0,1,1.484,1.484v9.6a1.484,1.484,0,0,1-1.484,1.484" transform="translate(-6.458)" fill="#ce2939"/>
    <path id="패스_810" data-name="패스 810" d="M37.756,12.566H30.4a1.484,1.484,0,0,1-1.484-1.484v-9.6A1.484,1.484,0,0,1,30.4,0h7.354A1.484,1.484,0,0,1,39.24,1.484v9.6a1.484,1.484,0,0,1-1.484,1.484" transform="translate(-8.084)" fill="#e6333e"/>
    <rect id="사각형_80" data-name="사각형 80" width="29.939" height="52.629" transform="translate(13.146 11.048)" fill="#95aab5"/>
    <rect id="사각형_81" data-name="사각형 81" width="24.433" height="52.629" transform="translate(29.218 11.048)" fill="#a9becb"/>
    <rect id="사각형_82" data-name="사각형 82" width="34.337" height="9.531" transform="translate(9.371 6.283)" fill="#aaa"/>
    <rect id="사각형_83" data-name="사각형 83" width="30.782" height="9.531" transform="translate(27.804 6.283)" fill="#cecece"/>
    <rect id="사각형_84" data-name="사각형 84" width="2.562" height="9.649" transform="translate(56.279 54.028)" fill="#c16511"/>
    <path id="패스_811" data-name="패스 811" d="M83.834,70.481a6.44,6.44,0,1,0-6.44,6.44,6.44,6.44,0,0,0,6.44-6.44" transform="translate(-19.834 -17.902)" fill="#3ba83e"/>
    <path id="패스_812" data-name="패스 812" d="M78.873,73.966a4.959,4.959,0,0,1-.689-9.87,6.346,6.346,0,0,0-.79-.053,6.481,6.481,0,1,0,6.387,5.65,4.958,4.958,0,0,1-4.909,4.274" transform="translate(-19.835 -17.902)" fill="#2f8c2f"/>
    <rect id="사각형_85" data-name="사각형 85" width="3.595" height="3.595" transform="translate(32.295 18.241)" fill="#3ea4d5"/>
    <rect id="사각형_86" data-name="사각형 86" width="3.595" height="3.595" transform="translate(37.371 18.241)" fill="#3ea4d5"/>
    <rect id="사각형_87" data-name="사각형 87" width="3.595" height="3.595" transform="translate(42.448 18.241)" fill="#3ea4d5"/>
    <rect id="사각형_88" data-name="사각형 88" width="3.595" height="3.595" transform="translate(47.525 18.241)" fill="#3ea4d5"/>
    <rect id="사각형_89" data-name="사각형 89" width="3.595" height="3.595" transform="translate(32.295 23.385)" fill="#293f5d"/>
    <rect id="사각형_90" data-name="사각형 90" width="3.595" height="3.595" transform="translate(37.371 23.385)" fill="#3ea4d5"/>
    <rect id="사각형_91" data-name="사각형 91" width="3.595" height="3.595" transform="translate(42.448 23.385)" fill="#3ea4d5"/>
    <rect id="사각형_92" data-name="사각형 92" width="3.595" height="3.595" transform="translate(47.525 23.385)" fill="#3ea4d5"/>
    <rect id="사각형_93" data-name="사각형 93" width="3.595" height="3.595" transform="translate(32.295 28.529)" fill="#3ea4d5"/>
    <rect id="사각형_94" data-name="사각형 94" width="3.595" height="3.595" transform="translate(37.371 28.529)" fill="#293f5d"/>
    <rect id="사각형_95" data-name="사각형 95" width="3.595" height="3.595" transform="translate(42.448 28.529)" fill="#3ea4d5"/>
    <rect id="사각형_96" data-name="사각형 96" width="3.595" height="3.595" transform="translate(47.525 28.529)" fill="#293f5d"/>
    <rect id="사각형_97" data-name="사각형 97" width="3.595" height="3.595" transform="translate(32.295 33.673)" fill="#3ea4d5"/>
    <rect id="사각형_98" data-name="사각형 98" width="3.595" height="3.595" transform="translate(37.371 33.673)" fill="#3ea4d5"/>
    <rect id="사각형_99" data-name="사각형 99" width="3.595" height="3.595" transform="translate(42.448 33.673)" fill="#293f5d"/>
    <rect id="사각형_100" data-name="사각형 100" width="3.595" height="3.595" transform="translate(47.525 33.673)" fill="#3ea4d5"/>
    <rect id="사각형_101" data-name="사각형 101" width="3.595" height="3.595" transform="translate(32.295 38.817)" fill="#3ea4d5"/>
    <rect id="사각형_102" data-name="사각형 102" width="3.595" height="3.595" transform="translate(37.371 38.817)" fill="#293f5d"/>
    <rect id="사각형_103" data-name="사각형 103" width="3.595" height="3.595" transform="translate(42.448 38.817)" fill="#3ea4d5"/>
    <rect id="사각형_104" data-name="사각형 104" width="3.595" height="3.595" transform="translate(47.525 38.817)" fill="#3ea4d5"/>
    <rect id="사각형_105" data-name="사각형 105" width="3.595" height="3.595" transform="translate(32.295 43.961)" fill="#3ea4d5"/>
    <rect id="사각형_106" data-name="사각형 106" width="3.595" height="3.595" transform="translate(37.371 43.961)" fill="#3ea4d5"/>
    <rect id="사각형_107" data-name="사각형 107" width="3.595" height="3.595" transform="translate(42.448 43.961)" fill="#3ea4d5"/>
    <rect id="사각형_108" data-name="사각형 108" width="3.595" height="3.595" transform="translate(47.525 43.961)" fill="#3ea4d5"/>
    <rect id="사각형_109" data-name="사각형 109" width="11.635" height="10.554" transform="translate(35.89 53.123)" fill="#95aab5"/>
    <rect id="사각형_110" data-name="사각형 110" width="5.077" height="10.554" transform="translate(35.889 53.123)" fill="#3ea4d5"/>
    <rect id="사각형_111" data-name="사각형 111" width="2.613" height="10.554" transform="translate(44.912 53.123)" fill="#293f5d"/>
    <rect id="사각형_112" data-name="사각형 112" width="15.231" height="3.016" transform="translate(32.295 51.797)" fill="#95aab5"/>
    <rect id="사각형_113" data-name="사각형 113" width="15.231" height="3.016" transform="translate(34.092 51.797)" fill="#cecece"/>
    <rect id="사각형_114" data-name="사각형 114" width="17.561" height="33.351" transform="translate(8.435 30.326)" fill="#cecece"/>
    <rect id="사각형_115" data-name="사각형 115" width="17.561" height="33.351" transform="translate(4.365 30.326)" fill="#82959e"/>
    <rect id="사각형_116" data-name="사각형 116" width="3.595" height="3.595" transform="translate(6.37 33.673)" fill="#3ea4d5"/>
    <rect id="사각형_117" data-name="사각형 117" width="3.595" height="3.595" transform="translate(11.447 33.673)" fill="#3ea4d5"/>
    <rect id="사각형_118" data-name="사각형 118" width="3.595" height="3.595" transform="translate(16.524 33.673)" fill="#293f5d"/>
    <rect id="사각형_119" data-name="사각형 119" width="3.595" height="3.595" transform="translate(6.37 38.817)" fill="#293f5d"/>
    <rect id="사각형_120" data-name="사각형 120" width="3.595" height="3.595" transform="translate(11.447 38.817)" fill="#3ea4d5"/>
    <rect id="사각형_121" data-name="사각형 121" width="3.595" height="3.595" transform="translate(16.524 38.817)" fill="#3ea4d5"/>
    <rect id="사각형_122" data-name="사각형 122" width="3.595" height="3.595" transform="translate(6.37 43.961)" fill="#3ea4d5"/>
    <rect id="사각형_123" data-name="사각형 123" width="3.595" height="3.595" transform="translate(11.348 43.961)" fill="#293f5d"/>
    <rect id="사각형_124" data-name="사각형 124" width="3.595" height="3.595" transform="translate(16.524 43.961)" fill="#3ea4d5"/>
    <rect id="사각형_125" data-name="사각형 125" width="3.595" height="3.595" transform="translate(6.37 49.105)" fill="#3ea4d5"/>
    <rect id="사각형_126" data-name="사각형 126" width="3.595" height="3.595" transform="translate(11.348 49.105)" fill="#293f5d"/>
    <rect id="사각형_127" data-name="사각형 127" width="3.595" height="3.595" transform="translate(16.524 49.105)" fill="#3ea4d5"/>
    <rect id="사각형_128" data-name="사각형 128" width="3.595" height="3.595" transform="translate(6.37 54.249)" fill="#3ea4d5"/>
    <rect id="사각형_129" data-name="사각형 129" width="3.595" height="3.595" transform="translate(11.447 54.249)" fill="#3ea4d5"/>
    <rect id="사각형_130" data-name="사각형 130" width="3.595" height="3.595" transform="translate(16.524 54.249)" fill="#293f5d"/>
    <rect id="사각형_131" data-name="사각형 131" width="1.736" height="6.54" transform="translate(3.497 57.137)" fill="#c16511"/>
    <path id="패스_813" data-name="패스 813" d="M8.731,76.249a4.365,4.365,0,1,0-4.365,4.365,4.366,4.366,0,0,0,4.365-4.365" transform="translate(0 -20.094)" fill="#3ba83e"/>
    <path id="패스_814" data-name="패스 814" d="M5.368,78.611a3.361,3.361,0,0,1-.468-6.69,4.363,4.363,0,1,0,3.831,4.329,4.5,4.5,0,0,0-.036-.535,3.362,3.362,0,0,1-3.327,2.9" transform="translate(0 -20.094)" fill="#2f8c2f"/>
    <rect id="사각형_132" data-name="사각형 132" width="3.339" height="1.798" transform="translate(13.876 20.038)" fill="#a9becb"/>
    <rect id="사각형_133" data-name="사각형 133" width="3.339" height="1.798" transform="translate(15.546 22.171)" fill="#a9becb"/>
    <rect id="사각형_134" data-name="사각형 134" width="3.339" height="1.798" transform="translate(29.083 8.635)" fill="#aaa"/>
    <rect id="사각형_135" data-name="사각형 135" width="3.339" height="1.798" transform="translate(30.753 10.768)" fill="#aaa"/>
    <rect id="사각형_136" data-name="사각형 136" width="3.339" height="1.798" transform="translate(50.312 13.55)" fill="#aaa"/>
    <rect id="사각형_137" data-name="사각형 137" width="3.339" height="1.798" transform="translate(24.87 16.823)" fill="#a9becb"/>
    <rect id="사각형_138" data-name="사각형 138" width="3.339" height="1.798" transform="translate(48.642 6.838)" fill="#aaa"/>
    <rect id="사각형_139" data-name="사각형 139" width="3.339" height="1.798" transform="translate(24.87 26.081)" fill="#a9becb"/>
  </g>
</svg>
