<?xml version="1.0" encoding="UTF-8"?>
<svg id="Layer_1" data-name="Layer 1" xmlns="http://www.w3.org/2000/svg" viewBox="0 0 533.98 97.1">
  <defs>
    <style>
      .cls-1 {
        fill: #fff;
        stroke-width: 0px;
      }
    </style>
  </defs>
  <path class="cls-1" d="M32.79,70.29c-.6,0-1.21-.02-1.83-.05-19.62-1.05-29.88-13.75-30.31-14.29-.42-.53-.65-1.19-.65-1.86V6.93c0-1.12.62-2.15,1.62-2.66,1-.52,2.2-.43,3.11.21l13.49,9.53c9.95-4.95,21.46-1.67,26.02,0l9-9.18c1.16-1.18,3.06-1.2,4.24-.04,1.18,1.16,1.2,3.06.04,4.24l-10.4,10.61c-.89.9-2.24,1.15-3.39.63-.14-.06-14.12-6.3-24.15-.17-1.02.63-2.32.58-3.3-.11l-10.29-7.27v40.23c2.34,2.48,11.01,10.54,25.28,11.3,14.36.77,21.37-9.92,22.98-12.77-.29-4.67-.78-25.34,11.72-39.15C73.35,4.19,83.78.04,96.98,0c.06,0,.13,0,.19,0,13.26,0,23.56,4.14,30.63,12.3,13.49,15.58,10.06,40.02,9.91,41.05-.24,1.64-1.77,2.77-3.41,2.53-1.64-.24-2.77-1.77-2.53-3.41.03-.22,3.16-22.79-8.53-36.27-5.9-6.81-14.69-10.26-26.25-10.2-11.42.03-20.35,3.51-26.55,10.34-12.09,13.32-10.17,35.28-10.15,35.5.05.54-.05,1.09-.28,1.58-.34.71-8.29,16.87-27.23,16.87Z"/>
  <path class="cls-1" d="M101.61,48.44h-10.01c-1.66,0-3-1.34-3-3s1.34-3,3-3h10.01c1.66,0,3,1.34,3,3s-1.34,3-3,3Z"/>
  <path class="cls-1" d="M83.52,70.34c-.62,0-1.26-.04-1.91-.12-3.75-.45-6.74-2.21-8.9-5.24-6.22-8.73-2.93-25.03-2.53-26.86.35-1.62,1.95-2.65,3.57-2.3,1.62.35,2.65,1.95,2.3,3.57-.92,4.26-2.42,16.54,1.56,22.11,1.17,1.64,2.67,2.51,4.73,2.76,2.34.28,4.24-.26,5.81-1.65,3.24-2.87,4.65-8.81,5.19-13.17.02-2.51.29-4.27.31-4.46.24-1.55,1.63-2.65,3.2-2.53,1.56.12,2.77,1.42,2.77,2.99,0,.2,0,1.91-.29,4.35,0,3.72.65,8.69,3.28,11.64,1.79,2.01,4.33,2.94,7.77,2.82,2.78-.09,4.81-1.05,6.23-2.92,4.17-5.52,2.4-17.64,1.36-21.84-.4-1.61.58-3.23,2.19-3.63,1.61-.4,3.23.58,3.63,2.19.18.73,4.36,17.96-2.39,26.9-2.51,3.32-6.25,5.16-10.82,5.31-5.28.16-9.47-1.45-12.47-4.84-.89-1-1.62-2.11-2.22-3.28-.97,1.87-2.2,3.6-3.75,4.97-2.43,2.16-5.32,3.25-8.61,3.25Z"/>
  <ellipse class="cls-1" cx="16.81" cy="38.76" rx="4.18" ry="4.26"/>
  <ellipse class="cls-1" cx="43" cy="38.76" rx="4.18" ry="4.26"/>
  <ellipse class="cls-1" cx="84.99" cy="31.71" rx="4.18" ry="4.26"/>
  <ellipse class="cls-1" cx="108.48" cy="31.71" rx="4.18" ry="4.26"/>
  <ellipse class="cls-1" cx="30.97" cy="55.88" rx="4.86" ry="2.83"/>
  <g>
    <path class="cls-1" d="M187.41,43.68v-6.09h-19.46v-21.21h46.48v6.72h-37.94v7.77h38.64v6.72h-19.18v6.09h23.31v6.72h-55.17v-6.72h23.31ZM191.68,54.53c15.33,0,24.29,4.41,24.29,11.76s-8.96,11.76-24.29,11.76-24.29-4.41-24.29-11.76,8.96-11.76,24.29-11.76ZM180.13,70c2.59.91,6.44,1.33,11.55,1.33s8.96-.42,11.62-1.33c2.73-.91,4.13-2.17,4.13-3.71s-1.4-2.8-4.13-3.71c-2.66-.91-6.51-1.33-11.62-1.33s-8.96.42-11.55,1.33c-2.8.91-4.2,2.1-4.2,3.71s1.4,2.8,4.2,3.71Z"/>
    <path class="cls-1" d="M270.29,60.41v-4.13h-39.69v-6.16h20.23v-4.62h-23.31v-6.37h55.17v6.37h-23.31v4.62h19.46v16.31h-38.92v4.41h40.53v6.44h-49.08v-16.87h38.92ZM231.37,16.1h47.46v18.97h-47.46v-18.97ZM270.29,28.7v-6.23h-30.38v6.23h30.38Z"/>
    <path class="cls-1" d="M314.25,62.58v-12.53h-19.46V17.22h8.54v8.54h30.38v-8.54h8.54v32.83h-19.46v12.53h23.31v7h-55.17v-7h23.31ZM333.71,43.05v-10.29h-30.38v10.29h30.38Z"/>
    <path class="cls-1" d="M377.67,63.28v-7.42c-11.55-1.05-18.62-5.81-18.62-12.81,0-2.59.91-4.83,2.73-6.79,3.64-3.85,10.71-6.16,20.16-6.16,4.69,0,8.82.56,12.25,1.61,6.93,2.24,10.64,6.23,10.64,11.34,0,7-7.07,11.76-18.62,12.81v7.42h23.31v7h-55.17v-7h23.31ZM357.16,19.67h20.51v-6.44h8.54v6.44h20.51v6.79h-49.57v-6.79ZM371.37,47.6c2.59,1.12,6.16,1.68,10.57,1.68s7.98-.56,10.57-1.68c2.59-1.12,3.92-2.66,3.92-4.55s-1.33-3.43-3.92-4.62c-2.59-1.12-6.09-1.68-10.57-1.68s-7.98.56-10.57,1.68c-2.59,1.19-3.92,2.73-3.92,4.62s1.33,3.43,3.92,4.55Z"/>
    <path class="cls-1" d="M415.4,46.48l11.97-18.13v-11.83h7.7v11.83l11.97,18.13-6.23,3.92-9.59-15.05-9.59,15.05-6.23-3.92ZM426.46,54.6h8.54v15.47h37.24v6.86h-45.78v-22.33ZM441.72,26.46h9.24v-11.2h7.77v42.56h-7.77v-24.36h-9.24v-7ZM464.19,15.26h7.77v42.56h-7.77V15.26Z"/>
    <path class="cls-1" d="M516.41,18.06v6.93h-23.38v13.37h20.58v6.93h-20.58v14.42h25.48v6.93h-34.02V18.06h31.92ZM516.9,38.36h8.54V15.26h8.54v62.38h-8.54v-32.27h-8.54v-7Z"/>
  </g>
  <g>
    <path class="cls-1" d="M5.76,91.76c.4.96.99,1.7,1.78,2.22.79.52,1.71.78,2.78.78s1.91-.2,2.52-.59.92-.95.92-1.67c0-.64-.2-1.15-.59-1.52-.39-.37-1-.67-1.83-.9l-2.4-.66c-1.31-.36-2.37-.9-3.2-1.62-.83-.72-1.24-1.73-1.24-3.02,0-.93.24-1.75.73-2.44s1.16-1.23,2.01-1.6c.85-.37,1.81-.56,2.88-.56,1.47,0,2.73.37,3.8,1.11,1.07.74,1.83,1.68,2.3,2.81l-2.16,1.08c-.39-.81-.91-1.46-1.57-1.94-.66-.48-1.45-.72-2.37-.72-.97,0-1.73.2-2.27.6s-.81.95-.81,1.66c0,.65.21,1.15.64,1.5.43.35,1.04.63,1.84.84l2.34.64c1.29.36,2.36.91,3.19,1.66.83.75,1.25,1.77,1.25,3.08,0,.95-.26,1.77-.79,2.46-.53.69-1.24,1.22-2.15,1.59s-1.92.55-3.04.55c-1.63,0-3.03-.37-4.2-1.12-1.17-.75-2.02-1.79-2.54-3.14l2.18-1.08Z"/>
    <path class="cls-1" d="M22.56,96.8v-16.32h2.58v16.32h-2.58ZM23.92,89.56v-2.34h10.52v2.34h-10.52ZM33.22,96.8v-16.32h2.58v16.32h-2.58Z"/>
    <path class="cls-1" d="M42.76,96.8v-16.32h2.58v16.32h-2.58ZM44.14,82.76v-2.28h9.06v2.28h-9.06ZM44.14,89.52v-2.28h8.68v2.28h-8.68ZM44.14,96.8v-2.28h9.26v2.28h-9.26Z"/>
    <path class="cls-1" d="M59.76,96.8v-16.32h2.58v16.32h-2.58ZM61.14,96.8v-2.28h8.66v2.28h-8.66Z"/>
    <path class="cls-1" d="M72.96,82.82v-2.34h13v2.34h-13ZM78.18,96.8v-15.3h2.58v15.3h-2.58Z"/>
    <path class="cls-1" d="M91.92,96.8v-16.32h2.58v16.32h-2.58ZM93.3,82.76v-2.28h9.06v2.28h-9.06ZM93.3,89.52v-2.28h8.68v2.28h-8.68ZM93.3,96.8v-2.28h9.26v2.28h-9.26Z"/>
    <path class="cls-1" d="M108.92,96.8v-16.32h2.58v16.32h-2.58ZM110.22,90.16v-2.28h5.06c1.07,0,1.88-.22,2.44-.66.56-.44.84-1.08.84-1.92s-.28-1.46-.84-1.89c-.56-.43-1.37-.65-2.44-.65h-5.06v-2.28h5.24c1.75,0,3.13.41,4.15,1.24s1.53,2.02,1.53,3.58-.51,2.79-1.52,3.62c-1.01.83-2.4,1.24-4.16,1.24h-5.24ZM118.7,96.8l-4.04-8.36h2.58l4.32,8.36h-2.86Z"/>
  </g>
</svg>