<svg xmlns="http://www.w3.org/2000/svg" width="233.148" height="49.114" viewBox="0 0 233.148 49.114">
  <g id="logo" transform="translate(-335.5 -27.693)">
    <g id="그룹_12" data-name="그룹 12" opacity="0.8">
      <path id="패스_36" data-name="패스 36" d="M45.589,190.575l-5.171,5.275s-7.66-3.517-13.406,0l-7.468-5.275v23.446a19.966,19.966,0,0,0,13.98,6.541c9.192.493,13.022-7.518,13.022-7.518S44.2,188.686,66.272,188.621c22.444-.067,18.767,24.814,18.767,24.814" transform="translate(317.455 -159.428)" fill="none" stroke="#fff" stroke-linecap="round" stroke-linejoin="round" stroke-width="3"/>
      <line id="선_6" data-name="선 6" x2="4.979" transform="translate(381.046 50.295)" fill="none" stroke="#fff" stroke-linecap="round" stroke-linejoin="round" stroke-width="3"/>
      <path id="패스_37" data-name="패스 37" d="M89.084,224.384s-2.873,13.287,4.4,14.161,7.277-10.839,7.277-10.839-1.724,11.128,6.894,10.839,5.171-14.161,5.171-14.161" transform="translate(282.769 -177.411)" fill="none" stroke="#fff" stroke-linecap="round" stroke-linejoin="round" stroke-width="3"/>
      <path id="패스_38" data-name="패스 38" d="M33.328,222.241a2.077,2.077,0,1,1-2.077-2.119,2.1,2.1,0,0,1,2.077,2.119" transform="translate(312.613 -175.268)" fill="#fff"/>
      <path id="패스_39" data-name="패스 39" d="M59.521,222.241a2.077,2.077,0,1,1-2.077-2.119,2.1,2.1,0,0,1,2.077,2.119" transform="translate(299.442 -175.268)" fill="#fff"/>
      <path id="패스_40" data-name="패스 40" d="M101.507,215.185a2.077,2.077,0,1,1-2.077-2.119,2.1,2.1,0,0,1,2.077,2.119" transform="translate(278.33 -171.72)" fill="#fff"/>
      <path id="패스_41" data-name="패스 41" d="M125,215.185a2.077,2.077,0,1,1-2.077-2.119A2.1,2.1,0,0,1,125,215.185" transform="translate(266.515 -171.72)" fill="#fff"/>
      <path id="패스_42" data-name="패스 42" d="M47.491,240.08c0,.777-1.082,1.406-2.417,1.406s-2.417-.629-2.417-1.406,1.082-1.406,2.417-1.406,2.417.629,2.417,1.406" transform="translate(305.833 -184.596)" fill="#fff"/>
      <text id="동물보호센터" transform="translate(410.648 59.267)" fill="#fff" font-size="29" font-family="KBO Dia Gothic Medium, KBO Dia Gothic"><tspan x="0" y="0">동물보호센터</tspan></text>
      <text id="SHELTER" transform="translate(346.442 74.807)" fill="#fff" font-size="9" font-family="SegoeUI, Segoe UI"><tspan x="0" y="0" letter-spacing="0.199em">S</tspan><tspan y="0" letter-spacing="0.2em">HE</tspan><tspan y="0" letter-spacing="0.11em">L</tspan><tspan y="0" letter-spacing="0.2em">TE</tspan><tspan y="0">R</tspan></text>
    </g>
    <path id="패스_36-2" data-name="패스 36" d="M45.589,190.575l-5.171,5.275s-7.66-3.517-13.406,0l-7.468-5.275v23.446a19.966,19.966,0,0,0,13.98,6.541c9.192.493,13.022-7.518,13.022-7.518S44.2,188.686,66.272,188.621c22.444-.067,18.767,24.814,18.767,24.814" transform="translate(317.455 -159.428)" fill="none" stroke="#fff" stroke-linecap="round" stroke-linejoin="round" stroke-width="3"/>
    <line id="선_6-2" data-name="선 6" x2="4.979" transform="translate(381.046 50.295)" fill="none" stroke="#fff" stroke-linecap="round" stroke-linejoin="round" stroke-width="3"/>
    <path id="패스_37-2" data-name="패스 37" d="M89.084,224.384s-2.873,13.287,4.4,14.161,7.277-10.839,7.277-10.839-1.724,11.128,6.894,10.839,5.171-14.161,5.171-14.161" transform="translate(282.769 -177.411)" fill="none" stroke="#fff" stroke-linecap="round" stroke-linejoin="round" stroke-width="3"/>
    <path id="패스_38-2" data-name="패스 38" d="M33.328,222.241a2.077,2.077,0,1,1-2.077-2.119,2.1,2.1,0,0,1,2.077,2.119" transform="translate(312.613 -175.268)" fill="#fff"/>
    <path id="패스_39-2" data-name="패스 39" d="M59.521,222.241a2.077,2.077,0,1,1-2.077-2.119,2.1,2.1,0,0,1,2.077,2.119" transform="translate(299.442 -175.268)" fill="#fff"/>
    <path id="패스_40-2" data-name="패스 40" d="M101.507,215.185a2.077,2.077,0,1,1-2.077-2.119,2.1,2.1,0,0,1,2.077,2.119" transform="translate(278.33 -171.72)" fill="#fff"/>
    <path id="패스_41-2" data-name="패스 41" d="M125,215.185a2.077,2.077,0,1,1-2.077-2.119A2.1,2.1,0,0,1,125,215.185" transform="translate(266.515 -171.72)" fill="#fff"/>
    <path id="패스_42-2" data-name="패스 42" d="M47.491,240.08c0,.777-1.082,1.406-2.417,1.406s-2.417-.629-2.417-1.406,1.082-1.406,2.417-1.406,2.417.629,2.417,1.406" transform="translate(305.833 -184.596)" fill="#fff"/>
    <text id="동물보호센터-2" data-name="동물보호센터" transform="translate(410.648 59.267)" fill="#fff" font-size="29" font-family="KBO Dia Gothic Medium, KBO Dia Gothic"><tspan x="0" y="0">동물보호센터</tspan></text>
    <text id="SHELTER-2" data-name="SHELTER" transform="translate(346.442 74.807)" fill="#fff" font-size="9" font-family="SegoeUI, Segoe UI"><tspan x="0" y="0" letter-spacing="0.199em">S</tspan><tspan y="0" letter-spacing="0.2em">HE</tspan><tspan y="0" letter-spacing="0.11em">L</tspan><tspan y="0" letter-spacing="0.2em">TE</tspan><tspan y="0">R</tspan></text>
    <g id="그룹_70" data-name="그룹 70" opacity="0.8">
      <path id="패스_36-3" data-name="패스 36" d="M45.589,190.575l-5.171,5.275s-7.66-3.517-13.406,0l-7.468-5.275v23.446a19.966,19.966,0,0,0,13.98,6.541c9.192.493,13.022-7.518,13.022-7.518S44.2,188.686,66.272,188.621c22.444-.067,18.767,24.814,18.767,24.814" transform="translate(317.455 -159.428)" fill="none" stroke="#fff" stroke-linecap="round" stroke-linejoin="round" stroke-width="3"/>
      <line id="선_6-3" data-name="선 6" x2="4.979" transform="translate(381.046 50.295)" fill="none" stroke="#fff" stroke-linecap="round" stroke-linejoin="round" stroke-width="3"/>
      <path id="패스_37-3" data-name="패스 37" d="M89.084,224.384s-2.873,13.287,4.4,14.161,7.277-10.839,7.277-10.839-1.724,11.128,6.894,10.839,5.171-14.161,5.171-14.161" transform="translate(282.769 -177.411)" fill="none" stroke="#fff" stroke-linecap="round" stroke-linejoin="round" stroke-width="3"/>
      <path id="패스_38-3" data-name="패스 38" d="M33.328,222.241a2.077,2.077,0,1,1-2.077-2.119,2.1,2.1,0,0,1,2.077,2.119" transform="translate(312.613 -175.268)" fill="#fff"/>
      <path id="패스_39-3" data-name="패스 39" d="M59.521,222.241a2.077,2.077,0,1,1-2.077-2.119,2.1,2.1,0,0,1,2.077,2.119" transform="translate(299.442 -175.268)" fill="#fff"/>
      <path id="패스_40-3" data-name="패스 40" d="M101.507,215.185a2.077,2.077,0,1,1-2.077-2.119,2.1,2.1,0,0,1,2.077,2.119" transform="translate(278.33 -171.72)" fill="#fff"/>
      <path id="패스_41-3" data-name="패스 41" d="M125,215.185a2.077,2.077,0,1,1-2.077-2.119A2.1,2.1,0,0,1,125,215.185" transform="translate(266.515 -171.72)" fill="#fff"/>
      <path id="패스_42-3" data-name="패스 42" d="M47.491,240.08c0,.777-1.082,1.406-2.417,1.406s-2.417-.629-2.417-1.406,1.082-1.406,2.417-1.406,2.417.629,2.417,1.406" transform="translate(305.833 -184.596)" fill="#fff"/>
      <text id="동물보호센터-3" data-name="동물보호센터" transform="translate(410.648 59.267)" fill="#fff" font-size="29" font-family="KBO Dia Gothic Medium, KBO Dia Gothic"><tspan x="0" y="0">동물보호센터</tspan></text>
      <text id="SHELTER-3" data-name="SHELTER" transform="translate(346.442 74.807)" fill="#fff" font-size="9" font-family="SegoeUI, Segoe UI"><tspan x="0" y="0" letter-spacing="0.199em">S</tspan><tspan y="0" letter-spacing="0.2em">HE</tspan><tspan y="0" letter-spacing="0.11em">L</tspan><tspan y="0" letter-spacing="0.2em">TE</tspan><tspan y="0">R</tspan></text>
    </g>
    <path id="패스_36-4" data-name="패스 36" d="M45.589,190.575l-5.171,5.275s-7.66-3.517-13.406,0l-7.468-5.275v23.446a19.966,19.966,0,0,0,13.98,6.541c9.192.493,13.022-7.518,13.022-7.518S44.2,188.686,66.272,188.621c22.444-.067,18.767,24.814,18.767,24.814" transform="translate(317.455 -159.428)" fill="none" stroke="#fff" stroke-linecap="round" stroke-linejoin="round" stroke-width="3"/>
    <line id="선_6-4" data-name="선 6" x2="4.979" transform="translate(381.046 50.295)" fill="none" stroke="#fff" stroke-linecap="round" stroke-linejoin="round" stroke-width="3"/>
    <path id="패스_37-4" data-name="패스 37" d="M89.084,224.384s-2.873,13.287,4.4,14.161,7.277-10.839,7.277-10.839-1.724,11.128,6.894,10.839,5.171-14.161,5.171-14.161" transform="translate(282.769 -177.411)" fill="none" stroke="#fff" stroke-linecap="round" stroke-linejoin="round" stroke-width="3"/>
    <path id="패스_38-4" data-name="패스 38" d="M33.328,222.241a2.077,2.077,0,1,1-2.077-2.119,2.1,2.1,0,0,1,2.077,2.119" transform="translate(312.613 -175.268)" fill="#fff"/>
    <path id="패스_39-4" data-name="패스 39" d="M59.521,222.241a2.077,2.077,0,1,1-2.077-2.119,2.1,2.1,0,0,1,2.077,2.119" transform="translate(299.442 -175.268)" fill="#fff"/>
    <path id="패스_40-4" data-name="패스 40" d="M101.507,215.185a2.077,2.077,0,1,1-2.077-2.119,2.1,2.1,0,0,1,2.077,2.119" transform="translate(278.33 -171.72)" fill="#fff"/>
    <path id="패스_41-4" data-name="패스 41" d="M125,215.185a2.077,2.077,0,1,1-2.077-2.119A2.1,2.1,0,0,1,125,215.185" transform="translate(266.515 -171.72)" fill="#fff"/>
    <path id="패스_42-4" data-name="패스 42" d="M47.491,240.08c0,.777-1.082,1.406-2.417,1.406s-2.417-.629-2.417-1.406,1.082-1.406,2.417-1.406,2.417.629,2.417,1.406" transform="translate(305.833 -184.596)" fill="#fff"/>
    <text id="동물보호센터-4" data-name="동물보호센터" transform="translate(410.648 59.267)" fill="#fff" font-size="29" font-family="KBO Dia Gothic Medium, KBO Dia Gothic"><tspan x="0" y="0">동물보호센터</tspan></text>
    <text id="SHELTER-4" data-name="SHELTER" transform="translate(346.442 74.807)" fill="#fff" font-size="9" font-family="SegoeUI, Segoe UI"><tspan x="0" y="0" letter-spacing="0.199em">S</tspan><tspan y="0" letter-spacing="0.2em">HE</tspan><tspan y="0" letter-spacing="0.11em">L</tspan><tspan y="0" letter-spacing="0.2em">TE</tspan><tspan y="0">R</tspan></text>
  </g>
</svg>
