<svg xmlns="http://www.w3.org/2000/svg" width="185.292" height="187.1" viewBox="0 0 185.292 187.1">
  <g id="slogan" transform="translate(-10.5 -8.92)">
    <path id="패스_110" data-name="패스 110" d="M21.688,234.905h-.007l-7.179-.169a.328.328,0,0,1-.3-.2.338.338,0,0,1,.044-.354l1.832-2.281c-1.265-1.94-.256-4.187.125-4.9l-1.721-1.943a.337.337,0,1,1,.506-.445l1.882,2.125a.34.34,0,0,1,.034.4c-.017.027-1.606,2.615-.135,4.568a.335.335,0,0,1-.007.415L15.2,234.079l6.433.152c.334-.132,2.227-1.026,2.358-4.392.138-3.583-1.424-4.642-1.751-4.824-.638,0-4.453-.132-6.683-2.574a6.629,6.629,0,0,1-1.515-5.418,7.329,7.329,0,0,1,2.722-5.394,8.21,8.21,0,0,1,5.9-1.245.335.335,0,0,1,.267.395.342.342,0,0,1-.395.27,7.645,7.645,0,0,0-5.378,1.13,6.694,6.694,0,0,0-2.449,4.919,6.009,6.009,0,0,0,1.343,4.892c2.186,2.392,6.218,2.355,6.261,2.355a.348.348,0,0,1,.138.027c.1.044,2.382,1.086,2.21,5.5-.159,4.112-2.763,4.99-2.871,5.027a.353.353,0,0,1-.1.017Z" transform="translate(-2.312 -133.424)" fill="#fff"/>
    <path id="패스_111" data-name="패스 111" d="M33.395,227.725a6.824,6.824,0,0,1-1.751-.24.337.337,0,1,1,.189-.648c.02.007,2.031.58,3.164-.182a1.794,1.794,0,0,0,.759-1.407,1.747,1.747,0,0,0-.439-1.535,2.686,2.686,0,0,0-1.8-.523,6.035,6.035,0,0,1-.837.071.332.332,0,0,1-.334-.307.339.339,0,0,1,.273-.364,5.079,5.079,0,0,1,.82-.074c.941-.152,2.426-.641,2.5-2.2a1.29,1.29,0,0,0-.415-1.1c-.85-.742-2.824-.57-3.515-.439a.338.338,0,0,1-.395-.27.342.342,0,0,1,.27-.395c.115-.02,2.814-.509,4.082.594a1.936,1.936,0,0,1,.648,1.64,2.73,2.73,0,0,1-1.646,2.389,2.416,2.416,0,0,1,.81.479,2.364,2.364,0,0,1,.654,2.1,2.458,2.458,0,0,1-1.056,1.9,3.58,3.58,0,0,1-1.98.509Z" transform="translate(-13.85 -138.537)" fill="#fff"/>
    <path id="패스_112" data-name="패스 112" d="M34.146,231.508h-.013a.506.506,0,0,1-.493-.52l.034-1.437a.5.5,0,0,1,.52-.493.506.506,0,0,1,.493.52l-.034,1.437A.5.5,0,0,1,34.146,231.508Z" transform="translate(-15.333 -145.872)" fill="#fff"/>
    <circle id="타원_21" data-name="타원 21" cx="0.854" cy="0.854" r="0.854" transform="translate(16.684 97.659)" fill="#fff"/>
    <circle id="타원_22" data-name="타원 22" cx="0.854" cy="0.854" r="0.854" transform="translate(16.795 93.058)" fill="#fff"/>
    <circle id="타원_23" data-name="타원 23" cx="0.854" cy="0.854" r="0.854" transform="translate(15.618 85.548)" fill="#fff"/>
    <circle id="타원_24" data-name="타원 24" cx="0.854" cy="0.854" r="0.854" transform="translate(15.719 81.24)" fill="#fff"/>
    <ellipse id="타원_25" data-name="타원 25" cx="0.843" cy="0.52" rx="0.843" ry="0.52" transform="translate(19.524 97.044) rotate(-88.64)" fill="#fff"/>
    <path id="패스_113" data-name="패스 113" d="M414.409,73.422a.337.337,0,0,1-.219-.594,7.661,7.661,0,0,0,2.49-4.9,6.687,6.687,0,0,0-2.3-4.99,6,6,0,0,0-4.649-2.017c-3.229.2-5.739,3.374-5.762,3.4a.4.4,0,0,1-.108.091c-.094.051-2.341,1.177-5.668-1.721-3.1-2.7-2.159-5.28-2.119-5.388a.413.413,0,0,1,.057-.1l4.632-5.489a.34.34,0,0,1,.337-.111.334.334,0,0,1,.25.256l.631,2.857c2.3.229,3.421,2.426,3.735,3.164l2.594-.125a.343.343,0,0,1,.354.32.339.339,0,0,1-.32.354l-2.834.135a.331.331,0,0,1-.334-.226c-.01-.03-1.032-2.888-3.478-2.965a.332.332,0,0,1-.317-.263l-.536-2.439-4.15,4.919c-.108.344-.594,2.378,1.947,4.588,2.706,2.355,4.51,1.8,4.858,1.66.4-.493,2.895-3.387,6.194-3.6a6.65,6.65,0,0,1,5.172,2.213,7.319,7.319,0,0,1,2.5,5.5,8.241,8.241,0,0,1-2.726,5.381.34.34,0,0,1-.219.081Z" transform="translate(-255.386 -28.283)" fill="#fff"/>
    <path id="패스_114" data-name="패스 114" d="M428.046,96.633a2,2,0,0,1-1.343-.553,2.731,2.731,0,0,1-.83-2.78,2.208,2.208,0,0,1-2.925-.476,2.462,2.462,0,0,1-.816-2.014c.145-1.68,2.044-3.019,2.125-3.077a.34.34,0,0,1,.469.084.336.336,0,0,1-.084.469c-.017.014-1.724,1.218-1.842,2.581a1.789,1.789,0,0,0,.621,1.474,1.73,1.73,0,0,0,1.471.617,2.672,2.672,0,0,0,1.535-1.076,5.112,5.112,0,0,1,.472-.7.337.337,0,0,1,.56.371,5.341,5.341,0,0,1-.455.685c-.469.827-1.022,2.291.148,3.326a1.284,1.284,0,0,0,1.117.364c1.107-.2,2.213-1.845,2.547-2.463a.337.337,0,1,1,.594.317c-.054.1-1.366,2.513-3.019,2.81a1.968,1.968,0,0,1-.341.03Z" transform="translate(-272.758 -52.186)" fill="#fff"/>
    <path id="패스_115" data-name="패스 115" d="M435.482,97.756a.527.527,0,0,1-.327-.118l-1.1-.928a.505.505,0,1,1,.651-.773l1.1.928a.5.5,0,0,1-.327.891Z" transform="translate(-280.548 -57.583)" fill="#fff"/>
    <circle id="타원_26" data-name="타원 26" cx="0.854" cy="0.854" r="0.854" transform="translate(143.349 28.507)" fill="#fff"/>
    <circle id="타원_27" data-name="타원 27" cx="0.854" cy="0.854" r="0.854" transform="translate(146.871 31.479)" fill="#fff"/>
    <circle id="타원_28" data-name="타원 28" cx="0.854" cy="0.854" r="0.854" transform="translate(153.46 35.264)" fill="#fff"/>
    <circle id="타원_29" data-name="타원 29" cx="0.854" cy="0.854" r="0.854" transform="translate(156.753 38.044)" fill="#fff"/>
    <ellipse id="타원_30" data-name="타원 30" cx="0.52" cy="0.843" rx="0.52" ry="0.843" transform="matrix(0.645, -0.764, 0.764, 0.645, 143.45, 32.637)" fill="#fff"/>
    <g id="그룹_28" data-name="그룹 28" transform="translate(10.5 8.92)">
      <path id="패스_116" data-name="패스 116" d="M36.86,150.608l-1.818-.958-3.063,5.806-6.329-3.34,7.317-13.866,2,1.059L29,150.628l2.318,1.225L37.4,140.325l2,1.059-3.019,5.722,1.818.958,3.67-6.953,2,1.059-8.684,16.456-2-1.059,3.67-6.953Zm3.91.435c2.412-4.575,5.141-6.552,7.334-5.394s2.1,4.524-.317,9.1-5.141,6.552-7.334,5.394S38.355,155.617,40.77,151.043Zm2.8,5.88a12.6,12.6,0,0,0,2.216-3.235,12.882,12.882,0,0,0,1.434-3.677c.159-.958,0-1.575-.455-1.815s-1.056-.024-1.758.648a12.827,12.827,0,0,0-2.227,3.259,12.437,12.437,0,0,0-1.42,3.654c-.169.978-.034,1.582.445,1.839s1.056.024,1.768-.668Z" transform="translate(-20.539 -94.619)" fill="#fff"/>
      <path id="패스_117" data-name="패스 117" d="M63.13,92.423,74.067,80.73,78.74,85.1,67.8,96.8,63.13,92.423ZM75.2,85.74,73.669,84.3l-7,7.486L68.2,93.226l7-7.483Zm7.813,7.307L82,92.1l-9.149,9.777-1.518-1.42,4.662-4.983L74.857,94.4l-5.371,5.742-1.569-1.468L80.629,85.089,82.2,86.556,76.827,92.3l1.137,1.066,4.484-4.794,4.018,3.758-8.97,9.588,1.086,1.015,9.342-9.986,1.586,1.484L78.2,106.518l-4.156-3.886,8.97-9.588Z" transform="translate(-45.375 -56.504)" fill="#fff"/>
      <path id="패스_118" data-name="패스 118" d="M130.513,57.768l-2.22-3.6-5.59,3.444-5.813-9.429,2.453-1.511,1.511,2.453,8.724-5.381-1.511-2.453,2.453-1.511,5.813,9.429-5.587,3.444,2.22,3.6,6.693-4.129,1.238,2.011L125.057,63.9l-1.238-2.011,6.693-4.129Zm2.129-9.055-1.822-2.955L122.1,51.139l1.822,2.955Z" transform="translate(-80.998 -29.369)" fill="#fff"/>
      <path id="패스_119" data-name="패스 119" d="M181.31,22.121l6.643-1.94-.607-2.085,2.766-.806.607,2.085,6.643-1.94.641,2.2-16.052,4.683-.641-2.2Zm10.762,12.185-.7-2.4c-3.839.752-6.579-.121-7.24-2.389a3.239,3.239,0,0,1,.243-2.456c.816-1.592,2.888-3.006,5.948-3.9a14.378,14.378,0,0,1,4.119-.638c2.456.071,4.035,1.012,4.517,2.669.661,2.267-1.177,4.477-4.821,5.907l.7,2.4,7.55-2.2.661,2.267-17.863,5.212-.661-2.267,7.55-2.2Zm-3.522-4.484a11.525,11.525,0,0,0,6.848-2c.732-.607,1.019-1.231.84-1.845s-.756-.985-1.707-1.127a9.117,9.117,0,0,0-3.583.455,9.3,9.3,0,0,0-3.266,1.542c-.725.631-1.012,1.255-.833,1.866s.756.985,1.7,1.1Z" transform="translate(-123.686 -14.466)" fill="#fff"/>
      <path id="패스_120" data-name="패스 120" d="M247.7,19.773l3.937-6.184L251.57,9.6l2.6-.044.067,3.991,4.139,6.049L256.3,20.95l-3.32-5.023-3.151,5.131L247.7,19.77Zm3.778,2.675,2.881-.047.088,5.219,12.563-.213.04,2.314-15.441.26-.128-7.533Zm4.99-9.578,3.117-.051-.064-3.778L262.142,9l.24,14.358-2.621.044-.138-8.218-3.117.054-.04-2.362Zm7.513-3.907L266.6,8.92l.24,14.358-2.621.044Z" transform="translate(-167.678 -8.92)" fill="#fff"/>
      <path id="패스_121" data-name="패스 121" d="M328.973,17.312l-.577,2.267-7.645-1.947L319.638,22l6.73,1.714-.577,2.267-6.73-1.714-1.2,4.716,8.329,2.122-.577,2.267L314.49,30.543l4.045-15.883,10.435,2.658Zm-1.528,6.676,2.793.712,1.923-7.553,2.793.712-5.192,20.393-2.793-.712,2.685-10.549-2.793-.712.584-2.287Z" transform="translate(-211.936 -12.724)" fill="#fff"/>
      <path id="패스_122" data-name="패스 122" d="M456.807,121.4l1.6,2.4-3.951,2.631,6.835,10.259-1.926,1.282-8.434-12.658,5.877-3.917Zm11.683-6.619-2.554,1.7,2.959,4.443,2.554-1.7,1.6,2.4-9.315,6.207-6.153-9.237,9.315-6.207,1.6,2.4Zm-4.433,9.365,2.908-1.94-2.959-4.443-2.908,1.94Zm10.843-.385,1.6,2.4-3.539,2.358,1.387,2.085-1.967,1.309-1.39-2.085-6.956,4.635-1.6-2.4,12.462-8.3Z" transform="translate(-302.347 -77.483)" fill="#fff"/>
      <path id="패스_123" data-name="패스 123" d="M500.749,185.874l4.281-1.417-2.365-7.152,2.22-.735,3.272,9.888-8.721,2.884-2.291-6.926-4.618,1.528,2.773,8.383-2.22.735L489.4,181.944l9.058-3Zm-1.532,4.386.965,2.915,3.812-1.262L503.029,189l2.243-.742.965,2.915,4.035-1.336.9,2.736L491.2,199.18l-.9-2.736,7.645-2.53L496.977,191l2.243-.742Z" transform="translate(-327.838 -120.012)" fill="#fff"/>
      <path id="패스_124" data-name="패스 124" d="M504.829,256.353c.266,5.165-1.063,8.259-3.539,8.387s-4.119-2.814-4.386-7.979,1.063-8.259,3.539-8.387,4.119,2.814,4.386,7.979Zm-5.411-3.623a12.4,12.4,0,0,0-.246,3.913,12.685,12.685,0,0,0,.651,3.89c.354.9.8,1.353,1.322,1.326s.918-.52,1.177-1.457a12.839,12.839,0,0,0,.246-3.937,12.489,12.489,0,0,0-.648-3.866c-.354-.928-.779-1.38-1.322-1.349s-.918.52-1.177,1.481Zm8.994,1.994,2.051-.1-.337-6.555,7.145-.371.81,15.657-2.264.118-.661-12.783-2.618.135.675,13.015-2.264.118-.334-6.46-2.051.1.4,7.854-2.264.118-.961-18.582,2.264-.118Z" transform="translate(-332.788 -166.595)" fill="#fff"/>
      <path id="패스_125" data-name="패스 125" d="M494.018,324.478l1.363.3,2.844-13.086,2.031.442-1.447,6.67,1.522.331,1.67-7.685,2.1.455-3.951,18.184-2.1-.455,1.67-7.685-1.521-.331L496.8,328.03l-5.378-1.167,2.787-12.83-1.454-.317-2.9,13.363-2.122-.462,3.515-16.176,5.563,1.208-2.787,12.83Zm17.394-9.659-3.4,15.647-6.255-1.36,3.4-15.647Zm-6.94,11.929,2.055.445,2.176-10.016-2.055-.445Z" transform="translate(-326.732 -208.719)" fill="#fff"/>
      <path id="패스_126" data-name="패스 126" d="M473.069,404.073l-1.5,2.456-6.444-3.947-1.309,2.135-2.014-1.235,1.309-2.135-9.487-5.809,1.5-2.456Zm-5.843-21.163,5.462,9.439,4.993,3.06-1.5,2.456-4.993-3.06-10.89-.577.027-2.669,9.2.536-4.659-7.948,2.365-1.238Z" transform="translate(-304.129 -256.741)" fill="#fff"/>
      <path id="패스_127" data-name="패스 127" d="M427.911,458.273l-2.1,1.974L411.39,444.924l2.1-1.974Zm.067-22.02,2.051,9.969,2.766,2.942,3.3-3.107,1.619,1.721-8.7,8.188-1.619-1.721,3.3-3.107-2.766-2.942-9.827-2.655.746-2.584,8.252,2.257-1.751-8.373,2.625-.59Z" transform="translate(-276.146 -292.086)" fill="#fff"/>
      <path id="패스_128" data-name="패스 128" d="M403.522,483.869l-2.621,1.552-8.3-7.324-.081.047,2.446,10.792-2.621,1.552-2.7-13.582,3.249-1.926,10.62,8.886Z" transform="translate(-261.74 -317.75)" fill="#fff"/>
      <path id="패스_129" data-name="패스 129" d="M329.317,495.952l.509,1.572,11.7-3.792.654,2.021-14.378,4.659-1.8-5.57,11.48-3.721-.523-1.616-12,3.886-.671-2.068,14.668-4.753,1.835,5.661-11.48,3.721Zm4.72,14.334-2.739.887-1.164-3.593-2.382.773-.729-2.247,2.382-.773-1.221-3.775,2.739-.887Zm13.086-4.737-10.559,3.421-2.76-8.515,10.559-3.421Zm-9.864-3.782,1.333,4.112,5.077-1.646-1.333-4.112Z" transform="translate(-218.43 -325.43)" fill="#fff"/>
      <path id="패스_130" data-name="패스 130" d="M276.5,512.532l.371,8.117L274,520.78l-.371-8.117-8.8.4-.108-2.358,18.592-.847.108,2.358-6.913.314Zm6.3,14.7-15.994.729-.54-11.865,2.878-.132.435,9.507,13.117-.6.108,2.358Z" transform="translate(-178.956 -340.863)" fill="#fff"/>
      <path id="패스_131" data-name="패스 131" d="M181.573,508.337l-2.763-.816,3.131-10.6,2.763.816Zm12.169-9.011.516-1.744L185.513,495,185,496.742l-2.763-.816,2.537-8.586,14.27,4.217-2.537,8.586-2.763-.816ZM189.9,510.652c-3.67-1.083-5.212-3.782-4.328-6.771s3.643-4.416,7.314-3.33,5.212,3.782,4.328,6.771S193.573,511.738,189.9,510.652Zm-3.023-20.275-.708,2.4,8.744,2.584.708-2.4Zm5.357,12.371a2.983,2.983,0,1,0,2.213,3.758A2.873,2.873,0,0,0,192.237,502.747Z" transform="translate(-122.029 -325.94)" fill="#fff"/>
      <path id="패스_132" data-name="패스 132" d="M115.962,481.311l-2.446-1.518,1.309-2.105-2.125-1.319,1.245-2.007,2.125,1.319,1.12-1.8-2.125-1.319,1.245-2.007,2.125,1.319L119.592,470l2.446,1.518-6.079,9.79Zm7.317,4.376c-3.188-1.98-3.846-5.084-2.277-7.614s4.642-3.316,7.834-1.336,3.846,5.084,2.277,7.614S126.471,487.667,123.28,485.686ZM135.2,473.605c-1.457,2.348-4.858,2.405-8.987-.162s-5.587-5.637-4.129-7.985,4.858-2.405,8.991.162,5.587,5.637,4.129,7.985Zm-7.577,5.081a2.976,2.976,0,1,0,1.039,4.146A2.876,2.876,0,0,0,127.625,478.686Zm2.2-11.062c-2.507-1.559-4.561-1.832-5.3-.648s.422,2.9,2.928,4.46,4.561,1.832,5.3.648S132.331,469.183,129.824,467.624Z" transform="translate(-78.222 -310.272)" fill="#fff"/>
      <path id="패스_133" data-name="패스 133" d="M63.873,433.406,61.91,431.3l5.536-5.145-1.7-1.832,1.731-1.609,1.7,1.832,8.147-7.574,1.963,2.108L63.877,433.406Zm11.791,8.937-3.33-3.579-2.129,1.977-1.963-2.109,2.129-1.977-3.33-3.579,1.731-1.609,8.62,9.271-1.731,1.609ZM82.3,435.3c-2.682,2.493-5.806,2.463-8.184-.1-2.348-2.527-2.149-5.678.513-8.154s5.819-2.446,8.167.081c2.378,2.561,2.183,5.678-.5,8.171Zm-1.231-6.565c-1.14-1.228-2.868-1.073-4.477.422s-1.889,3.2-.746,4.436,2.884,1.09,4.494-.4S82.233,429.979,81.072,428.734Z" transform="translate(-44.566 -279.31)" fill="#fff"/>
      <path id="패스_134" data-name="패스 134" d="M24.2,375.961,22.99,373.64l18.639-9.76,1.214,2.321L24.2,375.961Zm9.426,3.751-1.491-2.844-5.857,3.067-1.214-2.321,18.639-9.76,1.214,2.321-10.691,5.6,1.491,2.844ZM46.119,383.2l-10.674.9-4.959,2.6-1.2-2.3,4.959-2.6,6.828-8.238,1.974,1.525-5.519,6.46,8.468-.833.132,2.49Z" transform="translate(-18.776 -244.131)" fill="#fff"/>
      <path id="패스_135" data-name="패스 135" d="M27.105,323.132l-4.8,1.039a5.177,5.177,0,0,1-3.971,3.64c-3.414.739-6.4-1.68-7.5-6.757s.621-8.518,4.035-9.257a5.171,5.171,0,0,1,5.121,1.67l4.8-1.039-.81-3.738,2.308-.5,3.937,18.184-2.308.5-.81-3.738Zm-7.044-4.079c-.695-3.208-2.463-4.9-4.585-4.443s-3.033,2.736-2.338,5.941c.685,3.161,2.463,4.9,4.585,4.443S20.746,322.214,20.061,319.053Zm5.334-3.812-3.809.823a11.411,11.411,0,0,1,.779,2.49,11.7,11.7,0,0,1,.32,2.588l3.809-.823-1.1-5.077Z" transform="translate(-10.5 -207.228)" fill="#fff"/>
      <path id="패스_136" data-name="패스 136" d="M54.318,292.9A1.843,1.843,0,1,1,56.1,291,1.847,1.847,0,0,1,54.318,292.9Z" transform="translate(-38.276 -194.656)" fill="#fff"/>
    </g>
  </g>
</svg>
